# xmcd
#
# Track frame offsets: 
#        150
#        17246
#        41984
#        64186
#        81575
#        98509
#        142765
#        191006
#        215734
#        248594
#        275774
#
# Disc length: 3922 seconds
#
# Revision: 0
# Processed by: cddbd v1.5.2PL0 Copyright (c) Steve Scherf et al.
# Submitted via: ExactAudioCopy v0.99pb5
#
DISCID=a20f500b
DTITLE=ДиДюЛя - Live In Saint Petersburg
DYEAR=2010
DGENRE=Instrumental
TTITLE0=Посылка Из Румынии
TTITLE1=Винил
TTITLE2=Русская
TTITLE3=Легкий Бриз
TTITLE4=Пляж
TTITLE5=Арабика
TTITLE6=Тайна Равновесия
TTITLE7=Пещерный Город Инкерман
TTITLE8=Полёт На Меркурий
TTITLE9=Рождение
TTITLE10=Двенадцать
EXTD=
EXTT0=
EXTT1=
EXTT2=
EXTT3=
EXTT4=
EXTT5=
EXTT6=
EXTT7=
EXTT8=
EXTT9=
EXTT10=
PLAYORDER=
